<svg id="visual" viewBox="0 0 960 540" width="960" height="540" xmlns="http://www.w3.org/2000/svg" xmlns:xlink="http://www.w3.org/1999/xlink" version="1.1"><path d="M0 141L8 143.8C16 146.7 32 152.3 48 144.3C64 136.3 80 114.7 96 102.8C112 91 128 89 144 91.7C160 94.3 176 101.7 192 112.5C208 123.3 224 137.7 240 139.5C256 141.3 272 130.7 288 134.3C304 138 320 156 336 156.8C352 157.7 368 141.3 384 131.3C400 121.3 416 117.7 432 115.8C448 114 464 114 480 108.7C496 103.3 512 92.7 528 99C544 105.3 560 128.7 576 135.8C592 143 608 134 624 135.8C640 137.7 656 150.3 672 159.3C688 168.3 704 173.7 720 173.7C736 173.7 752 168.3 768 154C784 139.7 800 116.3 816 101C832 85.7 848 78.3 864 88.2C880 98 896 125 912 138.5C928 152 944 152 952 152L960 152L960 0L952 0C944 0 928 0 912 0C896 0 880 0 864 0C848 0 832 0 816 0C800 0 784 0 768 0C752 0 736 0 720 0C704 0 688 0 672 0C656 0 640 0 624 0C608 0 592 0 576 0C560 0 544 0 528 0C512 0 496 0 480 0C464 0 448 0 432 0C416 0 400 0 384 0C368 0 352 0 336 0C320 0 304 0 288 0C272 0 256 0 240 0C224 0 208 0 192 0C176 0 160 0 144 0C128 0 112 0 96 0C80 0 64 0 48 0C32 0 16 0 8 0L0 0Z" fill="#ffffff"></path><path d="M0 217L8 217.8C16 218.7 32 220.3 48 213.2C64 206 80 190 96 180.2C112 170.3 128 166.7 144 169.3C160 172 176 181 192 189.2C208 197.3 224 204.7 240 203.8C256 203 272 194 288 198.5C304 203 320 221 336 217.3C352 213.7 368 188.3 384 176.5C400 164.7 416 166.3 432 171.7C448 177 464 186 480 182.5C496 179 512 163 528 173C544 183 560 219 576 226.2C592 233.3 608 211.7 624 203.5C640 195.3 656 200.7 672 207.8C688 215 704 224 720 231.2C736 238.3 752 243.7 768 234.7C784 225.7 800 202.3 816 184.3C832 166.3 848 153.7 864 163.7C880 173.7 896 206.3 912 221.7C928 237 944 235 952 234L960 233L960 150L952 150C944 150 928 150 912 136.5C896 123 880 96 864 86.2C848 76.3 832 83.7 816 99C800 114.3 784 137.7 768 152C752 166.3 736 171.7 720 171.7C704 171.7 688 166.3 672 157.3C656 148.3 640 135.7 624 133.8C608 132 592 141 576 133.8C560 126.7 544 103.3 528 97C512 90.7 496 101.3 480 106.7C464 112 448 112 432 113.8C416 115.7 400 119.3 384 129.3C368 139.3 352 155.7 336 154.8C320 154 304 136 288 132.3C272 128.7 256 139.3 240 137.5C224 135.7 208 121.3 192 110.5C176 99.7 160 92.3 144 89.7C128 87 112 89 96 100.8C80 112.7 64 134.3 48 142.3C32 150.3 16 144.7 8 141.8L0 139Z" fill="#e0e1e6"></path><path d="M0 244L8 245.8C16 247.7 32 251.3 48 247.7C64 244 80 233 96 224C112 215 128 208 144 209.8C160 211.7 176 222.3 192 231.3C208 240.3 224 247.7 240 246.8C256 246 272 237 288 238.8C304 240.7 320 253.3 336 249.7C352 246 368 226 384 217C400 208 416 210 432 215.5C448 221 464 230 480 226.3C496 222.7 512 206.3 528 215.3C544 224.3 560 258.7 576 263.2C592 267.7 608 242.3 624 234.2C640 226 656 235 672 244.8C688 254.7 704 265.3 720 274.3C736 283.3 752 290.7 768 280C784 269.3 800 240.7 816 220C832 199.3 848 186.7 864 195.7C880 204.7 896 235.3 912 252.3C928 269.3 944 272.7 952 274.3L960 276L960 231L952 232C944 233 928 235 912 219.7C896 204.3 880 171.7 864 161.7C848 151.7 832 164.3 816 182.3C800 200.3 784 223.7 768 232.7C752 241.7 736 236.3 720 229.2C704 222 688 213 672 205.8C656 198.7 640 193.3 624 201.5C608 209.7 592 231.3 576 224.2C560 217 544 181 528 171C512 161 496 177 480 180.5C464 184 448 175 432 169.7C416 164.3 400 162.7 384 174.5C368 186.3 352 211.7 336 215.3C320 219 304 201 288 196.5C272 192 256 201 240 201.8C224 202.7 208 195.3 192 187.2C176 179 160 170 144 167.3C128 164.7 112 168.3 96 178.2C80 188 64 204 48 211.2C32 218.3 16 216.7 8 215.8L0 215Z" fill="#c2c3ce"></path><path d="M0 298L8 300.7C16 303.3 32 308.7 48 306C64 303.3 80 292.7 96 280.2C112 267.7 128 253.3 144 251.5C160 249.7 176 260.3 192 273.8C208 287.3 224 303.7 240 301C256 298.3 272 276.7 288 274.8C304 273 320 291 336 292.8C352 294.7 368 280.3 384 274.8C400 269.3 416 272.7 432 275.3C448 278 464 280 480 272C496 264 512 246 528 252.3C544 258.7 560 289.3 576 298.3C592 307.3 608 294.7 624 292.8C640 291 656 300 672 305.3C688 310.7 704 312.3 720 319.5C736 326.7 752 339.3 768 327.7C784 316 800 280 816 258.3C832 236.7 848 229.3 864 239.2C880 249 896 276 912 290.5C928 305 944 307 952 308L960 309L960 274L952 272.3C944 270.7 928 267.3 912 250.3C896 233.3 880 202.7 864 193.7C848 184.7 832 197.3 816 218C800 238.7 784 267.3 768 278C752 288.7 736 281.3 720 272.3C704 263.3 688 252.7 672 242.8C656 233 640 224 624 232.2C608 240.3 592 265.7 576 261.2C560 256.7 544 222.3 528 213.3C512 204.3 496 220.7 480 224.3C464 228 448 219 432 213.5C416 208 400 206 384 215C368 224 352 244 336 247.7C320 251.3 304 238.7 288 236.8C272 235 256 244 240 244.8C224 245.7 208 238.3 192 229.3C176 220.3 160 209.7 144 207.8C128 206 112 213 96 222C80 231 64 242 48 245.7C32 249.3 16 245.7 8 243.8L0 242Z" fill="#a4a6b6"></path><path d="M0 320L8 321.7C16 323.3 32 326.7 48 325.7C64 324.7 80 319.3 96 308.7C112 298 128 282 144 277.5C160 273 176 280 192 291.7C208 303.3 224 319.7 240 317C256 314.3 272 292.7 288 291.7C304 290.7 320 310.3 336 314.8C352 319.3 368 308.7 384 305.2C400 301.7 416 305.3 432 309C448 312.7 464 316.3 480 306.3C496 296.3 512 272.7 528 278C544 283.3 560 317.7 576 329.5C592 341.3 608 330.7 624 327C640 323.3 656 326.7 672 332C688 337.3 704 344.7 720 353.7C736 362.7 752 373.3 768 359.8C784 346.3 800 308.7 816 284.5C832 260.3 848 249.7 864 259.5C880 269.3 896 299.7 912 314.8C928 330 944 330 952 330L960 330L960 307L952 306C944 305 928 303 912 288.5C896 274 880 247 864 237.2C848 227.3 832 234.7 816 256.3C800 278 784 314 768 325.7C752 337.3 736 324.7 720 317.5C704 310.3 688 308.7 672 303.3C656 298 640 289 624 290.8C608 292.7 592 305.3 576 296.3C560 287.3 544 256.7 528 250.3C512 244 496 262 480 270C464 278 448 276 432 273.3C416 270.7 400 267.3 384 272.8C368 278.3 352 292.7 336 290.8C320 289 304 271 288 272.8C272 274.7 256 296.3 240 299C224 301.7 208 285.3 192 271.8C176 258.3 160 247.7 144 249.5C128 251.3 112 265.7 96 278.2C80 290.7 64 301.3 48 304C32 306.7 16 301.3 8 298.7L0 296Z" fill="#878a9f"></path><path d="M0 379L8 381.7C16 384.3 32 389.7 48 385.2C64 380.7 80 366.3 96 350.2C112 334 128 316 144 310.7C160 305.3 176 312.7 192 330.7C208 348.7 224 377.3 240 379C256 380.7 272 355.3 288 349C304 342.7 320 355.3 336 359.8C352 364.3 368 360.7 384 360.7C400 360.7 416 364.3 432 366.2C448 368 464 368 480 361.7C496 355.3 512 342.7 528 349C544 355.3 560 380.7 576 389.7C592 398.7 608 391.3 624 388.7C640 386 656 388 672 389C688 390 704 390 720 394.5C736 399 752 408 768 398C784 388 800 359 816 339.2C832 319.3 848 308.7 864 317.7C880 326.7 896 355.3 912 369.7C928 384 944 384 952 384L960 384L960 328L952 328C944 328 928 328 912 312.8C896 297.7 880 267.3 864 257.5C848 247.7 832 258.3 816 282.5C800 306.7 784 344.3 768 357.8C752 371.3 736 360.7 720 351.7C704 342.7 688 335.3 672 330C656 324.7 640 321.3 624 325C608 328.7 592 339.3 576 327.5C560 315.7 544 281.3 528 276C512 270.7 496 294.3 480 304.3C464 314.3 448 310.7 432 307C416 303.3 400 299.7 384 303.2C368 306.7 352 317.3 336 312.8C320 308.3 304 288.7 288 289.7C272 290.7 256 312.3 240 315C224 317.7 208 301.3 192 289.7C176 278 160 271 144 275.5C128 280 112 296 96 306.7C80 317.3 64 322.7 48 323.7C32 324.7 16 321.3 8 319.7L0 318Z" fill="#6b6f88"></path><path d="M0 406L8 408.7C16 411.3 32 416.7 48 413C64 409.3 80 396.7 96 382.3C112 368 128 352 144 348.5C160 345 176 354 192 371C208 388 224 413 240 411.2C256 409.3 272 380.7 288 375.3C304 370 320 388 336 395.2C352 402.3 368 398.7 384 397.8C400 397 416 399 432 399C448 399 464 397 480 390.7C496 384.3 512 373.7 528 380.8C544 388 560 413 576 419.3C592 425.7 608 413.3 624 409.8C640 406.3 656 411.7 672 412.5C688 413.3 704 409.7 720 415C736 420.3 752 434.7 768 425.7C784 416.7 800 384.3 816 366.3C832 348.3 848 344.7 864 356.3C880 368 896 395 912 406.7C928 418.3 944 414.7 952 412.8L960 411L960 382L952 382C944 382 928 382 912 367.7C896 353.3 880 324.7 864 315.7C848 306.7 832 317.3 816 337.2C800 357 784 386 768 396C752 406 736 397 720 392.5C704 388 688 388 672 387C656 386 640 384 624 386.7C608 389.3 592 396.7 576 387.7C560 378.7 544 353.3 528 347C512 340.7 496 353.3 480 359.7C464 366 448 366 432 364.2C416 362.3 400 358.7 384 358.7C368 358.7 352 362.3 336 357.8C320 353.3 304 340.7 288 347C272 353.3 256 378.7 240 377C224 375.3 208 346.7 192 328.7C176 310.7 160 303.3 144 308.7C128 314 112 332 96 348.2C80 364.3 64 378.7 48 383.2C32 387.7 16 382.3 8 379.7L0 377Z" fill="#4f5572"></path><path d="M0 482L8 487.3C16 492.7 32 503.3 48 507.8C64 512.3 80 510.7 96 509.8C112 509 128 509 144 509C160 509 176 509 192 507.2C208 505.3 224 501.7 240 498C256 494.3 272 490.7 288 492.5C304 494.3 320 501.7 336 507C352 512.3 368 515.7 384 516.5C400 517.3 416 515.7 432 510.3C448 505 464 496 480 495.2C496 494.3 512 501.7 528 504.3C544 507 560 505 576 505.8C592 506.7 608 510.3 624 508.5C640 506.7 656 499.3 672 494.8C688 490.3 704 488.7 720 493.2C736 497.7 752 508.3 768 510.2C784 512 800 505 816 499.7C832 494.3 848 490.7 864 488.8C880 487 896 487 912 487C928 487 944 487 952 487L960 487L960 409L952 410.8C944 412.7 928 416.3 912 404.7C896 393 880 366 864 354.3C848 342.7 832 346.3 816 364.3C800 382.3 784 414.7 768 423.7C752 432.7 736 418.3 720 413C704 407.7 688 411.3 672 410.5C656 409.7 640 404.3 624 407.8C608 411.3 592 423.7 576 417.3C560 411 544 386 528 378.8C512 371.7 496 382.3 480 388.7C464 395 448 397 432 397C416 397 400 395 384 395.8C368 396.7 352 400.3 336 393.2C320 386 304 368 288 373.3C272 378.7 256 407.3 240 409.2C224 411 208 386 192 369C176 352 160 343 144 346.5C128 350 112 366 96 380.3C80 394.7 64 407.3 48 411C32 414.7 16 409.3 8 406.7L0 404Z" fill="#343d5d"></path><path d="M0 541L8 541C16 541 32 541 48 541C64 541 80 541 96 541C112 541 128 541 144 541C160 541 176 541 192 541C208 541 224 541 240 541C256 541 272 541 288 541C304 541 320 541 336 541C352 541 368 541 384 541C400 541 416 541 432 541C448 541 464 541 480 541C496 541 512 541 528 541C544 541 560 541 576 541C592 541 608 541 624 541C640 541 656 541 672 541C688 541 704 541 720 541C736 541 752 541 768 541C784 541 800 541 816 541C832 541 848 541 864 541C880 541 896 541 912 541C928 541 944 541 952 541L960 541L960 485L952 485C944 485 928 485 912 485C896 485 880 485 864 486.8C848 488.7 832 492.3 816 497.7C800 503 784 510 768 508.2C752 506.3 736 495.7 720 491.2C704 486.7 688 488.3 672 492.8C656 497.3 640 504.7 624 506.5C608 508.3 592 504.7 576 503.8C560 503 544 505 528 502.3C512 499.7 496 492.3 480 493.2C464 494 448 503 432 508.3C416 513.7 400 515.3 384 514.5C368 513.7 352 510.3 336 505C320 499.7 304 492.3 288 490.5C272 488.7 256 492.3 240 496C224 499.7 208 503.3 192 505.2C176 507 160 507 144 507C128 507 112 507 96 507.8C80 508.7 64 510.3 48 505.8C32 501.3 16 490.7 8 485.3L0 480Z" fill="#182648"></path></svg>