<svg id="visual" viewBox="0 0 960 100" width="960" height="100" xmlns="http://www.w3.org/2000/svg" xmlns:xlink="http://www.w3.org/1999/xlink" version="1.1"><path d="M0 72L8 65.8C16 59.7 32 47.3 48 40.2C64 33 80 31 96 28.2C112 25.3 128 21.7 144 21.3C160 21 176 24 192 26C208 28 224 29 240 35.3C256 41.7 272 53.3 288 55.8C304 58.3 320 51.7 336 49.8C352 48 368 51 384 54C400 57 416 60 432 53.3C448 46.7 464 30.3 480 30.8C496 31.3 512 48.7 528 54.8C544 61 560 56 576 51.5C592 47 608 43 624 38.5C640 34 656 29 672 34.8C688 40.7 704 57.3 720 61.8C736 66.3 752 58.7 768 53C784 47.3 800 43.7 816 44C832 44.3 848 48.7 864 45C880 41.3 896 29.7 912 32C928 34.3 944 50.7 952 58.8L960 67L960 0L952 0C944 0 928 0 912 0C896 0 880 0 864 0C848 0 832 0 816 0C800 0 784 0 768 0C752 0 736 0 720 0C704 0 688 0 672 0C656 0 640 0 624 0C608 0 592 0 576 0C560 0 544 0 528 0C512 0 496 0 480 0C464 0 448 0 432 0C416 0 400 0 384 0C368 0 352 0 336 0C320 0 304 0 288 0C272 0 256 0 240 0C224 0 208 0 192 0C176 0 160 0 144 0C128 0 112 0 96 0C80 0 64 0 48 0C32 0 16 0 8 0L0 0Z" fill="#eba8a2" stroke-linecap="round" stroke-linejoin="miter"></path></svg>