<svg id="visual" viewBox="0 0 960 100" width="960" height="100" xmlns="http://www.w3.org/2000/svg" xmlns:xlink="http://www.w3.org/1999/xlink" version="1.1"><path d="M0 27L9.3 26.5C18.7 26 37.3 25 56.2 27.2C75 29.3 94 34.7 112.8 39.7C131.7 44.7 150.3 49.3 169.2 50.8C188 52.3 207 50.7 225.8 47.2C244.7 43.7 263.3 38.3 282.2 38C301 37.7 320 42.3 338.8 39.7C357.7 37 376.3 27 395.2 21.5C414 16 433 15 451.8 16.5C470.7 18 489.3 22 508.2 25.2C527 28.3 546 30.7 564.8 34.3C583.7 38 602.3 43 621.2 41C640 39 659 30 677.8 31C696.7 32 715.3 43 734.2 45C753 47 772 40 790.8 37.8C809.7 35.7 828.3 38.3 847.2 40.8C866 43.3 885 45.7 903.8 48C922.7 50.3 941.3 52.7 950.7 53.8L960 55L960 101L950.7 101C941.3 101 922.7 101 903.8 101C885 101 866 101 847.2 101C828.3 101 809.7 101 790.8 101C772 101 753 101 734.2 101C715.3 101 696.7 101 677.8 101C659 101 640 101 621.2 101C602.3 101 583.7 101 564.8 101C546 101 527 101 508.2 101C489.3 101 470.7 101 451.8 101C433 101 414 101 395.2 101C376.3 101 357.7 101 338.8 101C320 101 301 101 282.2 101C263.3 101 244.7 101 225.8 101C207 101 188 101 169.2 101C150.3 101 131.7 101 112.8 101C94 101 75 101 56.2 101C37.3 101 18.7 101 9.3 101L0 101Z" fill="#0066ff"></path><path d="M0 43L9.3 46C18.7 49 37.3 55 56.2 54.8C75 54.7 94 48.3 112.8 48.2C131.7 48 150.3 54 169.2 55.8C188 57.7 207 55.3 225.8 50.7C244.7 46 263.3 39 282.2 37.3C301 35.7 320 39.3 338.8 41.2C357.7 43 376.3 43 395.2 43.8C414 44.7 433 46.3 451.8 44.8C470.7 43.3 489.3 38.7 508.2 40.7C527 42.7 546 51.3 564.8 52.2C583.7 53 602.3 46 621.2 41.8C640 37.7 659 36.3 677.8 35.8C696.7 35.3 715.3 35.7 734.2 40.8C753 46 772 56 790.8 60C809.7 64 828.3 62 847.2 57.8C866 53.7 885 47.3 903.8 48C922.7 48.7 941.3 56.3 950.7 60.2L960 64L960 101L950.7 101C941.3 101 922.7 101 903.8 101C885 101 866 101 847.2 101C828.3 101 809.7 101 790.8 101C772 101 753 101 734.2 101C715.3 101 696.7 101 677.8 101C659 101 640 101 621.2 101C602.3 101 583.7 101 564.8 101C546 101 527 101 508.2 101C489.3 101 470.7 101 451.8 101C433 101 414 101 395.2 101C376.3 101 357.7 101 338.8 101C320 101 301 101 282.2 101C263.3 101 244.7 101 225.8 101C207 101 188 101 169.2 101C150.3 101 131.7 101 112.8 101C94 101 75 101 56.2 101C37.3 101 18.7 101 9.3 101L0 101Z" fill="#0051bf"></path><path d="M0 56L9.3 59.2C18.7 62.3 37.3 68.7 56.2 70.3C75 72 94 69 112.8 68.2C131.7 67.3 150.3 68.7 169.2 68.3C188 68 207 66 225.8 66.3C244.7 66.7 263.3 69.3 282.2 69.8C301 70.3 320 68.7 338.8 69.7C357.7 70.7 376.3 74.3 395.2 72C414 69.7 433 61.3 451.8 57.7C470.7 54 489.3 55 508.2 57.5C527 60 546 64 564.8 67.2C583.7 70.3 602.3 72.7 621.2 71.8C640 71 659 67 677.8 62.7C696.7 58.3 715.3 53.7 734.2 51.8C753 50 772 51 790.8 54.7C809.7 58.3 828.3 64.7 847.2 66C866 67.3 885 63.7 903.8 62.3C922.7 61 941.3 62 950.7 62.5L960 63L960 101L950.7 101C941.3 101 922.7 101 903.8 101C885 101 866 101 847.2 101C828.3 101 809.7 101 790.8 101C772 101 753 101 734.2 101C715.3 101 696.7 101 677.8 101C659 101 640 101 621.2 101C602.3 101 583.7 101 564.8 101C546 101 527 101 508.2 101C489.3 101 470.7 101 451.8 101C433 101 414 101 395.2 101C376.3 101 357.7 101 338.8 101C320 101 301 101 282.2 101C263.3 101 244.7 101 225.8 101C207 101 188 101 169.2 101C150.3 101 131.7 101 112.8 101C94 101 75 101 56.2 101C37.3 101 18.7 101 9.3 101L0 101Z" fill="#123b82"></path><path d="M0 69L9.3 69.3C18.7 69.7 37.3 70.3 56.2 71.8C75 73.3 94 75.7 112.8 78.2C131.7 80.7 150.3 83.3 169.2 81.7C188 80 207 74 225.8 74.5C244.7 75 263.3 82 282.2 82.7C301 83.3 320 77.7 338.8 76.3C357.7 75 376.3 78 395.2 81.2C414 84.3 433 87.7 451.8 88C470.7 88.3 489.3 85.7 508.2 82C527 78.3 546 73.7 564.8 72.2C583.7 70.7 602.3 72.3 621.2 73C640 73.7 659 73.3 677.8 76C696.7 78.7 715.3 84.3 734.2 84.3C753 84.3 772 78.7 790.8 76.8C809.7 75 828.3 77 847.2 79.7C866 82.3 885 85.7 903.8 85.7C922.7 85.7 941.3 82.3 950.7 80.7L960 79L960 101L950.7 101C941.3 101 922.7 101 903.8 101C885 101 866 101 847.2 101C828.3 101 809.7 101 790.8 101C772 101 753 101 734.2 101C715.3 101 696.7 101 677.8 101C659 101 640 101 621.2 101C602.3 101 583.7 101 564.8 101C546 101 527 101 508.2 101C489.3 101 470.7 101 451.8 101C433 101 414 101 395.2 101C376.3 101 357.7 101 338.8 101C320 101 301 101 282.2 101C263.3 101 244.7 101 225.8 101C207 101 188 101 169.2 101C150.3 101 131.7 101 112.8 101C94 101 75 101 56.2 101C37.3 101 18.7 101 9.3 101L0 101Z" fill="#182648"></path></svg>