<svg id="visual" viewBox="0 0 960 540" width="960" height="540" xmlns="http://www.w3.org/2000/svg" xmlns:xlink="http://www.w3.org/1999/xlink" version="1.1"><rect x="0" y="0" width="960" height="540" fill="#4c05b6"></rect><defs><linearGradient id="grad1_0" x1="43.8%" y1="0%" x2="100%" y2="100%"><stop offset="14.444444444444446%" stop-color="#fcaf3c" stop-opacity="1"></stop><stop offset="85.55555555555554%" stop-color="#fcaf3c" stop-opacity="1"></stop></linearGradient></defs><defs><linearGradient id="grad1_1" x1="43.8%" y1="0%" x2="100%" y2="100%"><stop offset="14.444444444444446%" stop-color="#fcaf3c" stop-opacity="1"></stop><stop offset="85.55555555555554%" stop-color="#ff8a39" stop-opacity="1"></stop></linearGradient></defs><defs><linearGradient id="grad1_2" x1="43.8%" y1="0%" x2="100%" y2="100%"><stop offset="14.444444444444446%" stop-color="#ff6145" stop-opacity="1"></stop><stop offset="85.55555555555554%" stop-color="#ff8a39" stop-opacity="1"></stop></linearGradient></defs><defs><linearGradient id="grad1_3" x1="43.8%" y1="0%" x2="100%" y2="100%"><stop offset="14.444444444444446%" stop-color="#ff6145" stop-opacity="1"></stop><stop offset="85.55555555555554%" stop-color="#fd2d57" stop-opacity="1"></stop></linearGradient></defs><defs><linearGradient id="grad1_4" x1="43.8%" y1="0%" x2="100%" y2="100%"><stop offset="14.444444444444446%" stop-color="#eb006e" stop-opacity="1"></stop><stop offset="85.55555555555554%" stop-color="#fd2d57" stop-opacity="1"></stop></linearGradient></defs><defs><linearGradient id="grad1_5" x1="43.8%" y1="0%" x2="100%" y2="100%"><stop offset="14.444444444444446%" stop-color="#eb006e" stop-opacity="1"></stop><stop offset="85.55555555555554%" stop-color="#cc0088" stop-opacity="1"></stop></linearGradient></defs><defs><linearGradient id="grad1_6" x1="43.8%" y1="0%" x2="100%" y2="100%"><stop offset="14.444444444444446%" stop-color="#9d00a1" stop-opacity="1"></stop><stop offset="85.55555555555554%" stop-color="#cc0088" stop-opacity="1"></stop></linearGradient></defs><defs><linearGradient id="grad1_7" x1="43.8%" y1="0%" x2="100%" y2="100%"><stop offset="14.444444444444446%" stop-color="#9d00a1" stop-opacity="1"></stop><stop offset="85.55555555555554%" stop-color="#4c05b6" stop-opacity="1"></stop></linearGradient></defs><defs><linearGradient id="grad2_0" x1="0%" y1="0%" x2="56.3%" y2="100%"><stop offset="14.444444444444446%" stop-color="#fcaf3c" stop-opacity="1"></stop><stop offset="85.55555555555554%" stop-color="#fcaf3c" stop-opacity="1"></stop></linearGradient></defs><defs><linearGradient id="grad2_1" x1="0%" y1="0%" x2="56.3%" y2="100%"><stop offset="14.444444444444446%" stop-color="#ff8a39" stop-opacity="1"></stop><stop offset="85.55555555555554%" stop-color="#fcaf3c" stop-opacity="1"></stop></linearGradient></defs><defs><linearGradient id="grad2_2" x1="0%" y1="0%" x2="56.3%" y2="100%"><stop offset="14.444444444444446%" stop-color="#ff8a39" stop-opacity="1"></stop><stop offset="85.55555555555554%" stop-color="#ff6145" stop-opacity="1"></stop></linearGradient></defs><defs><linearGradient id="grad2_3" x1="0%" y1="0%" x2="56.3%" y2="100%"><stop offset="14.444444444444446%" stop-color="#fd2d57" stop-opacity="1"></stop><stop offset="85.55555555555554%" stop-color="#ff6145" stop-opacity="1"></stop></linearGradient></defs><defs><linearGradient id="grad2_4" x1="0%" y1="0%" x2="56.3%" y2="100%"><stop offset="14.444444444444446%" stop-color="#fd2d57" stop-opacity="1"></stop><stop offset="85.55555555555554%" stop-color="#eb006e" stop-opacity="1"></stop></linearGradient></defs><defs><linearGradient id="grad2_5" x1="0%" y1="0%" x2="56.3%" y2="100%"><stop offset="14.444444444444446%" stop-color="#cc0088" stop-opacity="1"></stop><stop offset="85.55555555555554%" stop-color="#eb006e" stop-opacity="1"></stop></linearGradient></defs><defs><linearGradient id="grad2_6" x1="0%" y1="0%" x2="56.3%" y2="100%"><stop offset="14.444444444444446%" stop-color="#cc0088" stop-opacity="1"></stop><stop offset="85.55555555555554%" stop-color="#9d00a1" stop-opacity="1"></stop></linearGradient></defs><defs><linearGradient id="grad2_7" x1="0%" y1="0%" x2="56.3%" y2="100%"><stop offset="14.444444444444446%" stop-color="#4c05b6" stop-opacity="1"></stop><stop offset="85.55555555555554%" stop-color="#9d00a1" stop-opacity="1"></stop></linearGradient></defs><g transform="translate(960, 0)"><path d="M0 351C-26.7 334.2 -53.4 317.3 -83.3 311C-113.3 304.7 -146.5 309 -171.5 297C-196.5 285.1 -213.2 257.1 -235.5 235.5C-257.8 213.9 -285.7 198.7 -304 175.5C-322.3 152.3 -330.9 120.9 -337.1 90.3C-343.3 59.7 -347.2 29.9 -351 0L0 0Z" fill="#7b00ac"></path><path d="M0 307.1C-23.4 292.4 -46.7 277.7 -72.9 272.1C-99.1 266.6 -128.2 270.3 -150.1 259.9C-171.9 249.5 -186.5 224.9 -206 206C-225.6 187.1 -250 173.9 -266 153.6C-282 133.2 -289.5 105.8 -295 79C-300.4 52.3 -303.8 26.1 -307.1 0L0 0Z" fill="#b70095"></path><path d="M0 263.3C-20 250.6 -40 238 -62.5 233.3C-85 228.5 -109.9 231.7 -128.6 222.8C-147.3 213.8 -159.9 192.8 -176.6 176.6C-193.3 160.4 -214.3 149.1 -228 131.6C-241.7 114.2 -248.2 90.7 -252.8 67.7C-257.5 44.8 -260.4 22.4 -263.2 0L0 0Z" fill="#dd007b"></path><path d="M0 219.4C-16.7 208.9 -33.4 198.3 -52.1 194.4C-70.8 190.5 -91.6 193.1 -107.2 185.7C-122.8 178.2 -133.2 160.7 -147.2 147.2C-161.1 133.7 -178.6 124.2 -190 109.7C-201.4 95.2 -206.8 75.6 -210.7 56.5C-214.6 37.3 -217 18.7 -219.4 0L0 0Z" fill="#f50062"></path><path d="M0 175.5C-13.3 167.1 -26.7 158.7 -41.7 155.5C-56.7 152.4 -73.3 154.5 -85.7 148.5C-98.2 142.6 -106.6 128.5 -117.7 117.7C-128.9 106.9 -142.8 99.4 -152 87.8C-161.1 76.1 -165.4 60.5 -168.6 45.2C-171.7 29.9 -173.6 14.9 -175.5 0L0 0Z" fill="#ff4a4d"></path><path d="M0 131.6C-10 125.3 -20 119 -31.3 116.6C-42.5 114.3 -55 115.9 -64.3 111.4C-73.7 106.9 -79.9 96.4 -88.3 88.3C-96.7 80.2 -107.1 74.5 -114 65.8C-120.8 57.1 -124.1 45.3 -126.4 33.9C-128.8 22.4 -130.2 11.2 -131.6 0L0 0Z" fill="#ff773e"></path><path d="M0 87.8C-6.7 83.5 -13.3 79.3 -20.8 77.8C-28.3 76.2 -36.6 77.2 -42.9 74.3C-49.1 71.3 -53.3 64.3 -58.9 58.9C-64.4 53.5 -71.4 49.7 -76 43.9C-80.6 38.1 -82.7 30.2 -84.3 22.6C-85.8 14.9 -86.8 7.5 -87.7 0L0 0Z" fill="#ff9d38"></path><path d="M0 43.9C-3.3 41.8 -6.7 39.7 -10.4 38.9C-14.2 38.1 -18.3 38.6 -21.4 37.1C-24.6 35.6 -26.6 32.1 -29.4 29.4C-32.2 26.7 -35.7 24.8 -38 21.9C-40.3 19 -41.4 15.1 -42.1 11.3C-42.9 7.5 -43.4 3.7 -43.9 0L0 0Z" fill="#fcaf3c"></path></g><g transform="translate(0, 540)"><path d="M0 -351C25.5 -325.4 50.9 -299.8 77.1 -287.8C103.3 -275.9 130.2 -277.5 157.5 -272.8C184.8 -268.1 212.5 -257 241.1 -241.1C269.7 -225.2 299.2 -204.5 304 -175.5C308.8 -146.5 288.9 -109.1 292.7 -78.4C296.4 -47.8 323.7 -23.9 351 0L0 0Z" fill="#7b00ac"></path><path d="M0 -307.1C22.3 -284.7 44.6 -262.3 67.5 -251.9C90.4 -241.4 113.9 -242.8 137.8 -238.7C161.7 -234.6 186 -224.9 211 -211C236 -197.1 261.8 -179 266 -153.6C270.2 -128.1 252.8 -95.4 256.1 -68.6C259.4 -41.8 283.2 -20.9 307.1 0L0 0Z" fill="#b70095"></path><path d="M0 -263.2C19.1 -244.1 38.2 -224.9 57.8 -215.9C77.5 -206.9 97.6 -208.1 118.1 -204.6C138.6 -201.1 159.4 -192.8 180.8 -180.8C202.3 -168.9 224.4 -153.4 228 -131.6C231.6 -109.8 216.7 -81.8 219.5 -58.8C222.3 -35.8 242.8 -17.9 263.3 0L0 0Z" fill="#dd007b"></path><path d="M0 -219.4C15.9 -203.4 31.8 -187.4 48.2 -179.9C64.6 -172.4 81.4 -173.4 98.4 -170.5C115.5 -167.6 132.8 -160.6 150.7 -150.7C168.6 -140.8 187 -127.8 190 -109.7C193 -91.5 180.6 -68.2 182.9 -49C185.3 -29.9 202.3 -14.9 219.4 0L0 0Z" fill="#f50062"></path><path d="M0 -175.5C12.7 -162.7 25.5 -149.9 38.6 -143.9C51.7 -137.9 65.1 -138.8 78.7 -136.4C92.4 -134 106.3 -128.5 120.6 -120.6C134.9 -112.6 149.6 -102.3 152 -87.8C154.4 -73.2 144.5 -54.5 146.3 -39.2C148.2 -23.9 161.9 -11.9 175.5 0L0 0Z" fill="#ff4a4d"></path><path d="M0 -131.6C9.6 -122 19.1 -112.4 28.9 -107.9C38.7 -103.5 48.8 -104.1 59.1 -102.3C69.3 -100.5 79.7 -96.4 90.4 -90.4C101.1 -84.5 112.2 -76.7 114 -65.8C115.8 -54.9 108.4 -40.9 109.8 -29.4C111.2 -17.9 121.4 -9 131.6 0L0 0Z" fill="#ff773e"></path><path d="M0 -87.7C6.4 -81.4 12.7 -75 19.3 -72C25.8 -69 32.5 -69.4 39.4 -68.2C46.2 -67 53.1 -64.3 60.3 -60.3C67.4 -56.3 74.8 -51.1 76 -43.9C77.2 -36.6 72.2 -27.3 73.2 -19.6C74.1 -11.9 80.9 -6 87.8 0L0 0Z" fill="#ff9d38"></path><path d="M0 -43.9C3.2 -40.7 6.4 -37.5 9.6 -36C12.9 -34.5 16.3 -34.7 19.7 -34.1C23.1 -33.5 26.6 -32.1 30.1 -30.1C33.7 -28.2 37.4 -25.6 38 -21.9C38.6 -18.3 36.1 -13.6 36.6 -9.8C37.1 -6 40.5 -3 43.9 0L0 0Z" fill="#fcaf3c"></path></g></svg>