<svg id="visual" viewBox="0 0 960 540" width="960" height="540" xmlns="http://www.w3.org/2000/svg" xmlns:xlink="http://www.w3.org/1999/xlink" version="1.1"><rect x="0" y="0" width="960" height="540" fill="#4c05b6"></rect><defs><linearGradient id="grad1_0" x1="43.8%" y1="100%" x2="100%" y2="0%"><stop offset="14.444444444444446%" stop-color="#fcaf3c" stop-opacity="1"></stop><stop offset="85.55555555555554%" stop-color="#fcaf3c" stop-opacity="1"></stop></linearGradient></defs><defs><linearGradient id="grad1_1" x1="43.8%" y1="100%" x2="100%" y2="0%"><stop offset="14.444444444444446%" stop-color="#fcaf3c" stop-opacity="1"></stop><stop offset="85.55555555555554%" stop-color="#ff8a39" stop-opacity="1"></stop></linearGradient></defs><defs><linearGradient id="grad1_2" x1="43.8%" y1="100%" x2="100%" y2="0%"><stop offset="14.444444444444446%" stop-color="#ff6145" stop-opacity="1"></stop><stop offset="85.55555555555554%" stop-color="#ff8a39" stop-opacity="1"></stop></linearGradient></defs><defs><linearGradient id="grad1_3" x1="43.8%" y1="100%" x2="100%" y2="0%"><stop offset="14.444444444444446%" stop-color="#ff6145" stop-opacity="1"></stop><stop offset="85.55555555555554%" stop-color="#fd2d57" stop-opacity="1"></stop></linearGradient></defs><defs><linearGradient id="grad1_4" x1="43.8%" y1="100%" x2="100%" y2="0%"><stop offset="14.444444444444446%" stop-color="#eb006e" stop-opacity="1"></stop><stop offset="85.55555555555554%" stop-color="#fd2d57" stop-opacity="1"></stop></linearGradient></defs><defs><linearGradient id="grad1_5" x1="43.8%" y1="100%" x2="100%" y2="0%"><stop offset="14.444444444444446%" stop-color="#eb006e" stop-opacity="1"></stop><stop offset="85.55555555555554%" stop-color="#cc0088" stop-opacity="1"></stop></linearGradient></defs><defs><linearGradient id="grad1_6" x1="43.8%" y1="100%" x2="100%" y2="0%"><stop offset="14.444444444444446%" stop-color="#9d00a1" stop-opacity="1"></stop><stop offset="85.55555555555554%" stop-color="#cc0088" stop-opacity="1"></stop></linearGradient></defs><defs><linearGradient id="grad1_7" x1="43.8%" y1="100%" x2="100%" y2="0%"><stop offset="14.444444444444446%" stop-color="#9d00a1" stop-opacity="1"></stop><stop offset="85.55555555555554%" stop-color="#4c05b6" stop-opacity="1"></stop></linearGradient></defs><defs><linearGradient id="grad2_0" x1="0%" y1="100%" x2="56.3%" y2="0%"><stop offset="14.444444444444446%" stop-color="#fcaf3c" stop-opacity="1"></stop><stop offset="85.55555555555554%" stop-color="#fcaf3c" stop-opacity="1"></stop></linearGradient></defs><defs><linearGradient id="grad2_1" x1="0%" y1="100%" x2="56.3%" y2="0%"><stop offset="14.444444444444446%" stop-color="#ff8a39" stop-opacity="1"></stop><stop offset="85.55555555555554%" stop-color="#fcaf3c" stop-opacity="1"></stop></linearGradient></defs><defs><linearGradient id="grad2_2" x1="0%" y1="100%" x2="56.3%" y2="0%"><stop offset="14.444444444444446%" stop-color="#ff8a39" stop-opacity="1"></stop><stop offset="85.55555555555554%" stop-color="#ff6145" stop-opacity="1"></stop></linearGradient></defs><defs><linearGradient id="grad2_3" x1="0%" y1="100%" x2="56.3%" y2="0%"><stop offset="14.444444444444446%" stop-color="#fd2d57" stop-opacity="1"></stop><stop offset="85.55555555555554%" stop-color="#ff6145" stop-opacity="1"></stop></linearGradient></defs><defs><linearGradient id="grad2_4" x1="0%" y1="100%" x2="56.3%" y2="0%"><stop offset="14.444444444444446%" stop-color="#fd2d57" stop-opacity="1"></stop><stop offset="85.55555555555554%" stop-color="#eb006e" stop-opacity="1"></stop></linearGradient></defs><defs><linearGradient id="grad2_5" x1="0%" y1="100%" x2="56.3%" y2="0%"><stop offset="14.444444444444446%" stop-color="#cc0088" stop-opacity="1"></stop><stop offset="85.55555555555554%" stop-color="#eb006e" stop-opacity="1"></stop></linearGradient></defs><defs><linearGradient id="grad2_6" x1="0%" y1="100%" x2="56.3%" y2="0%"><stop offset="14.444444444444446%" stop-color="#cc0088" stop-opacity="1"></stop><stop offset="85.55555555555554%" stop-color="#9d00a1" stop-opacity="1"></stop></linearGradient></defs><defs><linearGradient id="grad2_7" x1="0%" y1="100%" x2="56.3%" y2="0%"><stop offset="14.444444444444446%" stop-color="#4c05b6" stop-opacity="1"></stop><stop offset="85.55555555555554%" stop-color="#9d00a1" stop-opacity="1"></stop></linearGradient></defs><g transform="translate(960, 540)"><path d="M-351 0C-334.2 -26.7 -317.3 -53.4 -311 -83.3C-304.7 -113.3 -309 -146.5 -297 -171.5C-285.1 -196.5 -257.1 -213.2 -235.5 -235.5C-213.9 -257.8 -198.7 -285.7 -175.5 -304C-152.3 -322.3 -120.9 -330.9 -90.3 -337.1C-59.7 -343.3 -29.9 -347.2 0 -351L0 0Z" fill="#7b00ac"></path><path d="M-307.1 0C-292.4 -23.4 -277.7 -46.7 -272.1 -72.9C-266.6 -99.1 -270.3 -128.2 -259.9 -150.1C-249.5 -171.9 -224.9 -186.5 -206 -206C-187.1 -225.6 -173.9 -250 -153.6 -266C-133.2 -282 -105.8 -289.5 -79 -295C-52.3 -300.4 -26.1 -303.8 0 -307.1L0 0Z" fill="#b70095"></path><path d="M-263.2 0C-250.6 -20 -238 -40 -233.3 -62.5C-228.5 -85 -231.7 -109.9 -222.8 -128.6C-213.8 -147.3 -192.8 -159.9 -176.6 -176.6C-160.4 -193.3 -149.1 -214.3 -131.6 -228C-114.2 -241.7 -90.7 -248.2 -67.7 -252.8C-44.8 -257.5 -22.4 -260.4 0 -263.2L0 0Z" fill="#dd007b"></path><path d="M-219.4 0C-208.9 -16.7 -198.3 -33.4 -194.4 -52.1C-190.5 -70.8 -193.1 -91.6 -185.7 -107.2C-178.2 -122.8 -160.7 -133.2 -147.2 -147.2C-133.7 -161.1 -124.2 -178.6 -109.7 -190C-95.2 -201.4 -75.6 -206.8 -56.5 -210.7C-37.3 -214.6 -18.7 -217 0 -219.4L0 0Z" fill="#f50062"></path><path d="M-175.5 0C-167.1 -13.3 -158.7 -26.7 -155.5 -41.7C-152.4 -56.7 -154.5 -73.3 -148.5 -85.8C-142.6 -98.2 -128.5 -106.6 -117.7 -117.7C-106.9 -128.9 -99.4 -142.8 -87.8 -152C-76.1 -161.1 -60.5 -165.4 -45.2 -168.6C-29.9 -171.7 -14.9 -173.6 0 -175.5L0 0Z" fill="#ff4a4d"></path><path d="M-131.6 0C-125.3 -10 -119 -20 -116.6 -31.3C-114.3 -42.5 -115.9 -55 -111.4 -64.3C-106.9 -73.7 -96.4 -79.9 -88.3 -88.3C-80.2 -96.7 -74.5 -107.1 -65.8 -114C-57.1 -120.8 -45.3 -124.1 -33.9 -126.4C-22.4 -128.8 -11.2 -130.2 0 -131.6L0 0Z" fill="#ff773e"></path><path d="M-87.7 0C-83.5 -6.7 -79.3 -13.3 -77.8 -20.8C-76.2 -28.3 -77.2 -36.6 -74.3 -42.9C-71.3 -49.1 -64.3 -53.3 -58.9 -58.9C-53.5 -64.4 -49.7 -71.4 -43.9 -76C-38.1 -80.6 -30.2 -82.7 -22.6 -84.3C-14.9 -85.8 -7.5 -86.8 0 -87.7L0 0Z" fill="#ff9d38"></path><path d="M-43.9 0C-41.8 -3.3 -39.7 -6.7 -38.9 -10.4C-38.1 -14.2 -38.6 -18.3 -37.1 -21.4C-35.6 -24.6 -32.1 -26.6 -29.4 -29.4C-26.7 -32.2 -24.8 -35.7 -21.9 -38C-19 -40.3 -15.1 -41.4 -11.3 -42.1C-7.5 -42.9 -3.7 -43.4 0 -43.9L0 0Z" fill="#fcaf3c"></path></g><g transform="translate(0, 0)"><path d="M351 0C325.4 25.5 299.8 50.9 287.8 77.1C275.9 103.3 277.5 130.2 272.8 157.5C268.1 184.8 257 212.5 241.1 241.1C225.2 269.7 204.5 299.2 175.5 304C146.5 308.8 109.1 288.9 78.4 292.7C47.8 296.4 23.9 323.7 0 351L0 0Z" fill="#7b00ac"></path><path d="M307.1 0C284.7 22.3 262.3 44.6 251.9 67.5C241.4 90.4 242.8 113.9 238.7 137.8C234.6 161.7 224.9 186 211 211C197.1 236 179 261.8 153.6 266C128.1 270.2 95.4 252.8 68.6 256.1C41.8 259.4 20.9 283.2 0 307.1L0 0Z" fill="#b70095"></path><path d="M263.3 0C244.1 19.1 224.9 38.2 215.9 57.8C206.9 77.5 208.1 97.6 204.6 118.1C201.1 138.6 192.8 159.4 180.8 180.8C168.9 202.3 153.4 224.4 131.6 228C109.8 231.6 81.8 216.7 58.8 219.5C35.8 222.3 17.9 242.8 0 263.3L0 0Z" fill="#dd007b"></path><path d="M219.4 0C203.4 15.9 187.4 31.8 179.9 48.2C172.4 64.6 173.4 81.4 170.5 98.4C167.6 115.5 160.6 132.8 150.7 150.7C140.8 168.6 127.8 187 109.7 190C91.5 193 68.2 180.6 49 182.9C29.9 185.3 14.9 202.3 0 219.4L0 0Z" fill="#f50062"></path><path d="M175.5 0C162.7 12.7 149.9 25.5 143.9 38.6C137.9 51.7 138.8 65.1 136.4 78.7C134 92.4 128.5 106.3 120.6 120.6C112.6 134.9 102.3 149.6 87.8 152C73.2 154.4 54.5 144.5 39.2 146.3C23.9 148.2 11.9 161.9 0 175.5L0 0Z" fill="#ff4a4d"></path><path d="M131.6 0C122 9.6 112.4 19.1 107.9 28.9C103.5 38.7 104.1 48.8 102.3 59.1C100.5 69.3 96.4 79.7 90.4 90.4C84.5 101.1 76.7 112.2 65.8 114C54.9 115.8 40.9 108.4 29.4 109.8C17.9 111.2 9 121.4 0 131.6L0 0Z" fill="#ff773e"></path><path d="M87.8 0C81.4 6.4 75 12.7 72 19.3C69 25.8 69.4 32.5 68.2 39.4C67 46.2 64.3 53.1 60.3 60.3C56.3 67.4 51.1 74.8 43.9 76C36.6 77.2 27.3 72.2 19.6 73.2C11.9 74.1 6 80.9 0 87.8L0 0Z" fill="#ff9d38"></path><path d="M43.9 0C40.7 3.2 37.5 6.4 36 9.6C34.5 12.9 34.7 16.3 34.1 19.7C33.5 23.1 32.1 26.6 30.1 30.1C28.2 33.7 25.6 37.4 21.9 38C18.3 38.6 13.6 36.1 9.8 36.6C6 37.1 3 40.5 0 43.9L0 0Z" fill="#fcaf3c"></path></g></svg>