<svg id="visual" viewBox="0 0 960 540" width="960" height="540" xmlns="http://www.w3.org/2000/svg" xmlns:xlink="http://www.w3.org/1999/xlink" version="1.1"><path d="M0 396L10.7 394.3C21.3 392.7 42.7 389.3 64 382.5C85.3 375.7 106.7 365.3 128 360.8C149.3 356.3 170.7 357.7 192 365.5C213.3 373.3 234.7 387.7 256 385.5C277.3 383.3 298.7 364.7 320 362.8C341.3 361 362.7 376 384 380.3C405.3 384.7 426.7 378.3 448 380C469.3 381.7 490.7 391.3 512 387.8C533.3 384.3 554.7 367.7 576 367.2C597.3 366.7 618.7 382.3 640 390.2C661.3 398 682.7 398 704 394.7C725.3 391.3 746.7 384.7 768 379C789.3 373.3 810.7 368.7 832 367.7C853.3 366.7 874.7 369.3 896 376.2C917.3 383 938.7 394 949.3 399.5L960 405L960 541L949.3 541C938.7 541 917.3 541 896 541C874.7 541 853.3 541 832 541C810.7 541 789.3 541 768 541C746.7 541 725.3 541 704 541C682.7 541 661.3 541 640 541C618.7 541 597.3 541 576 541C554.7 541 533.3 541 512 541C490.7 541 469.3 541 448 541C426.7 541 405.3 541 384 541C362.7 541 341.3 541 320 541C298.7 541 277.3 541 256 541C234.7 541 213.3 541 192 541C170.7 541 149.3 541 128 541C106.7 541 85.3 541 64 541C42.7 541 21.3 541 10.7 541L0 541Z" fill="#eba8a2"></path><path d="M0 423L10.7 416C21.3 409 42.7 395 64 386.7C85.3 378.3 106.7 375.7 128 378.8C149.3 382 170.7 391 192 392.8C213.3 394.7 234.7 389.3 256 386C277.3 382.7 298.7 381.3 320 387.8C341.3 394.3 362.7 408.7 384 407.3C405.3 406 426.7 389 448 385.2C469.3 381.3 490.7 390.7 512 390.2C533.3 389.7 554.7 379.3 576 379.3C597.3 379.3 618.7 389.7 640 390.8C661.3 392 682.7 384 704 381.8C725.3 379.7 746.7 383.3 768 390.2C789.3 397 810.7 407 832 404.2C853.3 401.3 874.7 385.7 896 386.7C917.3 387.7 938.7 405.3 949.3 414.2L960 423L960 541L949.3 541C938.7 541 917.3 541 896 541C874.7 541 853.3 541 832 541C810.7 541 789.3 541 768 541C746.7 541 725.3 541 704 541C682.7 541 661.3 541 640 541C618.7 541 597.3 541 576 541C554.7 541 533.3 541 512 541C490.7 541 469.3 541 448 541C426.7 541 405.3 541 384 541C362.7 541 341.3 541 320 541C298.7 541 277.3 541 256 541C234.7 541 213.3 541 192 541C170.7 541 149.3 541 128 541C106.7 541 85.3 541 64 541C42.7 541 21.3 541 10.7 541L0 541Z" fill="#e78892"></path><path d="M0 394L10.7 397.5C21.3 401 42.7 408 64 408.5C85.3 409 106.7 403 128 405.7C149.3 408.3 170.7 419.7 192 424.7C213.3 429.7 234.7 428.3 256 422.8C277.3 417.3 298.7 407.7 320 405.2C341.3 402.7 362.7 407.3 384 414.8C405.3 422.3 426.7 432.7 448 432.8C469.3 433 490.7 423 512 422.5C533.3 422 554.7 431 576 428.3C597.3 425.7 618.7 411.3 640 411C661.3 410.7 682.7 424.3 704 427.5C725.3 430.7 746.7 423.3 768 424.7C789.3 426 810.7 436 832 441C853.3 446 874.7 446 896 437.3C917.3 428.7 938.7 411.3 949.3 402.7L960 394L960 541L949.3 541C938.7 541 917.3 541 896 541C874.7 541 853.3 541 832 541C810.7 541 789.3 541 768 541C746.7 541 725.3 541 704 541C682.7 541 661.3 541 640 541C618.7 541 597.3 541 576 541C554.7 541 533.3 541 512 541C490.7 541 469.3 541 448 541C426.7 541 405.3 541 384 541C362.7 541 341.3 541 320 541C298.7 541 277.3 541 256 541C234.7 541 213.3 541 192 541C170.7 541 149.3 541 128 541C106.7 541 85.3 541 64 541C42.7 541 21.3 541 10.7 541L0 541Z" fill="#de668c"></path><path d="M0 432L10.7 430C21.3 428 42.7 424 64 425.8C85.3 427.7 106.7 435.3 128 439.8C149.3 444.3 170.7 445.7 192 447.8C213.3 450 234.7 453 256 450.7C277.3 448.3 298.7 440.7 320 441.3C341.3 442 362.7 451 384 456.3C405.3 461.7 426.7 463.3 448 458C469.3 452.7 490.7 440.3 512 439C533.3 437.7 554.7 447.3 576 447C597.3 446.7 618.7 436.3 640 433.2C661.3 430 682.7 434 704 438.8C725.3 443.7 746.7 449.3 768 449.8C789.3 450.3 810.7 445.7 832 447C853.3 448.3 874.7 455.7 896 459C917.3 462.3 938.7 461.7 949.3 461.3L960 461L960 541L949.3 541C938.7 541 917.3 541 896 541C874.7 541 853.3 541 832 541C810.7 541 789.3 541 768 541C746.7 541 725.3 541 704 541C682.7 541 661.3 541 640 541C618.7 541 597.3 541 576 541C554.7 541 533.3 541 512 541C490.7 541 469.3 541 448 541C426.7 541 405.3 541 384 541C362.7 541 341.3 541 320 541C298.7 541 277.3 541 256 541C234.7 541 213.3 541 192 541C170.7 541 149.3 541 128 541C106.7 541 85.3 541 64 541C42.7 541 21.3 541 10.7 541L0 541Z" fill="#ce438f"></path><path d="M0 475L10.7 473.5C21.3 472 42.7 469 64 466.2C85.3 463.3 106.7 460.7 128 461.5C149.3 462.3 170.7 466.7 192 468.5C213.3 470.3 234.7 469.7 256 472C277.3 474.3 298.7 479.7 320 479C341.3 478.3 362.7 471.7 384 468.8C405.3 466 426.7 467 448 469.5C469.3 472 490.7 476 512 472.3C533.3 468.7 554.7 457.3 576 457.8C597.3 458.3 618.7 470.7 640 475.3C661.3 480 682.7 477 704 473.2C725.3 469.3 746.7 464.7 768 465.2C789.3 465.7 810.7 471.3 832 473.7C853.3 476 874.7 475 896 472.2C917.3 469.3 938.7 464.7 949.3 462.3L960 460L960 541L949.3 541C938.7 541 917.3 541 896 541C874.7 541 853.3 541 832 541C810.7 541 789.3 541 768 541C746.7 541 725.3 541 704 541C682.7 541 661.3 541 640 541C618.7 541 597.3 541 576 541C554.7 541 533.3 541 512 541C490.7 541 469.3 541 448 541C426.7 541 405.3 541 384 541C362.7 541 341.3 541 320 541C298.7 541 277.3 541 256 541C234.7 541 213.3 541 192 541C170.7 541 149.3 541 128 541C106.7 541 85.3 541 64 541C42.7 541 21.3 541 10.7 541L0 541Z" fill="#b51e98"></path><path d="M0 494L10.7 490.8C21.3 487.7 42.7 481.3 64 483C85.3 484.7 106.7 494.3 128 493.7C149.3 493 170.7 482 192 481.7C213.3 481.3 234.7 491.7 256 495.8C277.3 500 298.7 498 320 493.5C341.3 489 362.7 482 384 478.7C405.3 475.3 426.7 475.7 448 476.8C469.3 478 490.7 480 512 481C533.3 482 554.7 482 576 483.7C597.3 485.3 618.7 488.7 640 487.7C661.3 486.7 682.7 481.3 704 478.7C725.3 476 746.7 476 768 477.5C789.3 479 810.7 482 832 482.5C853.3 483 874.7 481 896 483.3C917.3 485.7 938.7 492.3 949.3 495.7L960 499L960 541L949.3 541C938.7 541 917.3 541 896 541C874.7 541 853.3 541 832 541C810.7 541 789.3 541 768 541C746.7 541 725.3 541 704 541C682.7 541 661.3 541 640 541C618.7 541 597.3 541 576 541C554.7 541 533.3 541 512 541C490.7 541 469.3 541 448 541C426.7 541 405.3 541 384 541C362.7 541 341.3 541 320 541C298.7 541 277.3 541 256 541C234.7 541 213.3 541 192 541C170.7 541 149.3 541 128 541C106.7 541 85.3 541 64 541C42.7 541 21.3 541 10.7 541L0 541Z" fill="#8f00a6"></path><path d="M0 517L10.7 516.2C21.3 515.3 42.7 513.7 64 514.3C85.3 515 106.7 518 128 520.5C149.3 523 170.7 525 192 524.8C213.3 524.7 234.7 522.3 256 521.8C277.3 521.3 298.7 522.7 320 519.7C341.3 516.7 362.7 509.3 384 509.3C405.3 509.3 426.7 516.7 448 517.5C469.3 518.3 490.7 512.7 512 510.3C533.3 508 554.7 509 576 512.2C597.3 515.3 618.7 520.7 640 521C661.3 521.3 682.7 516.7 704 512.2C725.3 507.7 746.7 503.3 768 505.3C789.3 507.3 810.7 515.7 832 520C853.3 524.3 874.7 524.7 896 523.2C917.3 521.7 938.7 518.3 949.3 516.7L960 515L960 541L949.3 541C938.7 541 917.3 541 896 541C874.7 541 853.3 541 832 541C810.7 541 789.3 541 768 541C746.7 541 725.3 541 704 541C682.7 541 661.3 541 640 541C618.7 541 597.3 541 576 541C554.7 541 533.3 541 512 541C490.7 541 469.3 541 448 541C426.7 541 405.3 541 384 541C362.7 541 341.3 541 320 541C298.7 541 277.3 541 256 541C234.7 541 213.3 541 192 541C170.7 541 149.3 541 128 541C106.7 541 85.3 541 64 541C42.7 541 21.3 541 10.7 541L0 541Z" fill="#4c05b6"></path></svg>