<svg id="visual" viewBox="0 0 960 540" width="960" height="540" xmlns="http://www.w3.org/2000/svg" xmlns:xlink="http://www.w3.org/1999/xlink" version="1.1"><path d="M0 396L10.7 398.7C21.3 401.3 42.7 406.7 64 411.2C85.3 415.7 106.7 419.3 128 421.2C149.3 423 170.7 423 192 422.3C213.3 421.7 234.7 420.3 256 419.2C277.3 418 298.7 417 320 417.2C341.3 417.3 362.7 418.7 384 420.8C405.3 423 426.7 426 448 424.8C469.3 423.7 490.7 418.3 512 418.8C533.3 419.3 554.7 425.7 576 424.2C597.3 422.7 618.7 413.3 640 413.5C661.3 413.7 682.7 423.3 704 422.2C725.3 421 746.7 409 768 407.3C789.3 405.7 810.7 414.3 832 416.7C853.3 419 874.7 415 896 411.2C917.3 407.3 938.7 403.7 949.3 401.8L960 400L960 541L949.3 541C938.7 541 917.3 541 896 541C874.7 541 853.3 541 832 541C810.7 541 789.3 541 768 541C746.7 541 725.3 541 704 541C682.7 541 661.3 541 640 541C618.7 541 597.3 541 576 541C554.7 541 533.3 541 512 541C490.7 541 469.3 541 448 541C426.7 541 405.3 541 384 541C362.7 541 341.3 541 320 541C298.7 541 277.3 541 256 541C234.7 541 213.3 541 192 541C170.7 541 149.3 541 128 541C106.7 541 85.3 541 64 541C42.7 541 21.3 541 10.7 541L0 541Z" fill="#ffffff"></path><path d="M0 446L10.7 440.3C21.3 434.7 42.7 423.3 64 421.3C85.3 419.3 106.7 426.7 128 426.7C149.3 426.7 170.7 419.3 192 420.7C213.3 422 234.7 432 256 437.3C277.3 442.7 298.7 443.3 320 441C341.3 438.7 362.7 433.3 384 428.5C405.3 423.7 426.7 419.3 448 420.5C469.3 421.7 490.7 428.3 512 428.3C533.3 428.3 554.7 421.7 576 422.2C597.3 422.7 618.7 430.3 640 436.2C661.3 442 682.7 446 704 447.5C725.3 449 746.7 448 768 441.7C789.3 435.3 810.7 423.7 832 422.7C853.3 421.7 874.7 431.3 896 431.3C917.3 431.3 938.7 421.7 949.3 416.8L960 412L960 541L949.3 541C938.7 541 917.3 541 896 541C874.7 541 853.3 541 832 541C810.7 541 789.3 541 768 541C746.7 541 725.3 541 704 541C682.7 541 661.3 541 640 541C618.7 541 597.3 541 576 541C554.7 541 533.3 541 512 541C490.7 541 469.3 541 448 541C426.7 541 405.3 541 384 541C362.7 541 341.3 541 320 541C298.7 541 277.3 541 256 541C234.7 541 213.3 541 192 541C170.7 541 149.3 541 128 541C106.7 541 85.3 541 64 541C42.7 541 21.3 541 10.7 541L0 541Z" fill="#d6d7de"></path><path d="M0 435L10.7 436.5C21.3 438 42.7 441 64 445.2C85.3 449.3 106.7 454.7 128 455.7C149.3 456.7 170.7 453.3 192 452.2C213.3 451 234.7 452 256 451C277.3 450 298.7 447 320 444.3C341.3 441.7 362.7 439.3 384 442.2C405.3 445 426.7 453 448 455.3C469.3 457.7 490.7 454.3 512 453.8C533.3 453.3 554.7 455.7 576 456.8C597.3 458 618.7 458 640 457.5C661.3 457 682.7 456 704 456.5C725.3 457 746.7 459 768 461.2C789.3 463.3 810.7 465.7 832 464.8C853.3 464 874.7 460 896 457.5C917.3 455 938.7 454 949.3 453.5L960 453L960 541L949.3 541C938.7 541 917.3 541 896 541C874.7 541 853.3 541 832 541C810.7 541 789.3 541 768 541C746.7 541 725.3 541 704 541C682.7 541 661.3 541 640 541C618.7 541 597.3 541 576 541C554.7 541 533.3 541 512 541C490.7 541 469.3 541 448 541C426.7 541 405.3 541 384 541C362.7 541 341.3 541 320 541C298.7 541 277.3 541 256 541C234.7 541 213.3 541 192 541C170.7 541 149.3 541 128 541C106.7 541 85.3 541 64 541C42.7 541 21.3 541 10.7 541L0 541Z" fill="#aeafbe"></path><path d="M0 453L10.7 456C21.3 459 42.7 465 64 465.3C85.3 465.7 106.7 460.3 128 458.2C149.3 456 170.7 457 192 460C213.3 463 234.7 468 256 471.7C277.3 475.3 298.7 477.7 320 477.3C341.3 477 362.7 474 384 474.2C405.3 474.3 426.7 477.7 448 479C469.3 480.3 490.7 479.7 512 474.8C533.3 470 554.7 461 576 459.2C597.3 457.3 618.7 462.7 640 468C661.3 473.3 682.7 478.7 704 479.7C725.3 480.7 746.7 477.3 768 475.2C789.3 473 810.7 472 832 472.3C853.3 472.7 874.7 474.3 896 476C917.3 477.7 938.7 479.3 949.3 480.2L960 481L960 541L949.3 541C938.7 541 917.3 541 896 541C874.7 541 853.3 541 832 541C810.7 541 789.3 541 768 541C746.7 541 725.3 541 704 541C682.7 541 661.3 541 640 541C618.7 541 597.3 541 576 541C554.7 541 533.3 541 512 541C490.7 541 469.3 541 448 541C426.7 541 405.3 541 384 541C362.7 541 341.3 541 320 541C298.7 541 277.3 541 256 541C234.7 541 213.3 541 192 541C170.7 541 149.3 541 128 541C106.7 541 85.3 541 64 541C42.7 541 21.3 541 10.7 541L0 541Z" fill="#878a9f"></path><path d="M0 477L10.7 479.7C21.3 482.3 42.7 487.7 64 490.3C85.3 493 106.7 493 128 492C149.3 491 170.7 489 192 488.8C213.3 488.7 234.7 490.3 256 492.3C277.3 494.3 298.7 496.7 320 497.7C341.3 498.7 362.7 498.3 384 495C405.3 491.7 426.7 485.3 448 482.8C469.3 480.3 490.7 481.7 512 484.3C533.3 487 554.7 491 576 493.7C597.3 496.3 618.7 497.7 640 493.8C661.3 490 682.7 481 704 480.7C725.3 480.3 746.7 488.7 768 488.5C789.3 488.3 810.7 479.7 832 477.2C853.3 474.7 874.7 478.3 896 481.7C917.3 485 938.7 488 949.3 489.5L960 491L960 541L949.3 541C938.7 541 917.3 541 896 541C874.7 541 853.3 541 832 541C810.7 541 789.3 541 768 541C746.7 541 725.3 541 704 541C682.7 541 661.3 541 640 541C618.7 541 597.3 541 576 541C554.7 541 533.3 541 512 541C490.7 541 469.3 541 448 541C426.7 541 405.3 541 384 541C362.7 541 341.3 541 320 541C298.7 541 277.3 541 256 541C234.7 541 213.3 541 192 541C170.7 541 149.3 541 128 541C106.7 541 85.3 541 64 541C42.7 541 21.3 541 10.7 541L0 541Z" fill="#626681"></path><path d="M0 513L10.7 508.8C21.3 504.7 42.7 496.3 64 493.8C85.3 491.3 106.7 494.7 128 497C149.3 499.3 170.7 500.7 192 502.8C213.3 505 234.7 508 256 509.8C277.3 511.7 298.7 512.3 320 510.5C341.3 508.7 362.7 504.3 384 500.5C405.3 496.7 426.7 493.3 448 493.7C469.3 494 490.7 498 512 499.3C533.3 500.7 554.7 499.3 576 500.8C597.3 502.3 618.7 506.7 640 505C661.3 503.3 682.7 495.7 704 495.2C725.3 494.7 746.7 501.3 768 503C789.3 504.7 810.7 501.3 832 501.3C853.3 501.3 874.7 504.7 896 506C917.3 507.3 938.7 506.7 949.3 506.3L960 506L960 541L949.3 541C938.7 541 917.3 541 896 541C874.7 541 853.3 541 832 541C810.7 541 789.3 541 768 541C746.7 541 725.3 541 704 541C682.7 541 661.3 541 640 541C618.7 541 597.3 541 576 541C554.7 541 533.3 541 512 541C490.7 541 469.3 541 448 541C426.7 541 405.3 541 384 541C362.7 541 341.3 541 320 541C298.7 541 277.3 541 256 541C234.7 541 213.3 541 192 541C170.7 541 149.3 541 128 541C106.7 541 85.3 541 64 541C42.7 541 21.3 541 10.7 541L0 541Z" fill="#3d4564"></path><path d="M0 522L10.7 520.5C21.3 519 42.7 516 64 516C85.3 516 106.7 519 128 522C149.3 525 170.7 528 192 527.3C213.3 526.7 234.7 522.3 256 521.7C277.3 521 298.7 524 320 522.7C341.3 521.3 362.7 515.7 384 515.5C405.3 515.3 426.7 520.7 448 522.3C469.3 524 490.7 522 512 519.7C533.3 517.3 554.7 514.7 576 515.5C597.3 516.3 618.7 520.7 640 522.3C661.3 524 682.7 523 704 523.5C725.3 524 746.7 526 768 524.3C789.3 522.7 810.7 517.3 832 516.7C853.3 516 874.7 520 896 521.7C917.3 523.3 938.7 522.7 949.3 522.3L960 522L960 541L949.3 541C938.7 541 917.3 541 896 541C874.7 541 853.3 541 832 541C810.7 541 789.3 541 768 541C746.7 541 725.3 541 704 541C682.7 541 661.3 541 640 541C618.7 541 597.3 541 576 541C554.7 541 533.3 541 512 541C490.7 541 469.3 541 448 541C426.7 541 405.3 541 384 541C362.7 541 341.3 541 320 541C298.7 541 277.3 541 256 541C234.7 541 213.3 541 192 541C170.7 541 149.3 541 128 541C106.7 541 85.3 541 64 541C42.7 541 21.3 541 10.7 541L0 541Z" fill="#182648"></path></svg>