<svg id="visual" viewBox="0 0 960 540" width="960" height="540" xmlns="http://www.w3.org/2000/svg" xmlns:xlink="http://www.w3.org/1999/xlink" version="1.1"><rect x="0" y="0" width="960" height="540" fill="#FFFFFF"></rect><path d="M0 402L10.7 408.5C21.3 415 42.7 428 64 434C85.3 440 106.7 439 128 435.3C149.3 431.7 170.7 425.3 192 420.2C213.3 415 234.7 411 256 412C277.3 413 298.7 419 320 420.8C341.3 422.7 362.7 420.3 384 418.7C405.3 417 426.7 416 448 416C469.3 416 490.7 417 512 418.8C533.3 420.7 554.7 423.3 576 419.7C597.3 416 618.7 406 640 402.7C661.3 399.3 682.7 402.7 704 408.3C725.3 414 746.7 422 768 422.2C789.3 422.3 810.7 414.7 832 410.5C853.3 406.3 874.7 405.7 896 411.7C917.3 417.7 938.7 430.3 949.3 436.7L960 443L960 541L949.3 541C938.7 541 917.3 541 896 541C874.7 541 853.3 541 832 541C810.7 541 789.3 541 768 541C746.7 541 725.3 541 704 541C682.7 541 661.3 541 640 541C618.7 541 597.3 541 576 541C554.7 541 533.3 541 512 541C490.7 541 469.3 541 448 541C426.7 541 405.3 541 384 541C362.7 541 341.3 541 320 541C298.7 541 277.3 541 256 541C234.7 541 213.3 541 192 541C170.7 541 149.3 541 128 541C106.7 541 85.3 541 64 541C42.7 541 21.3 541 10.7 541L0 541Z" fill="#ff0066"></path><path d="M0 445L10.7 441C21.3 437 42.7 429 64 424.8C85.3 420.7 106.7 420.3 128 422.2C149.3 424 170.7 428 192 432.2C213.3 436.3 234.7 440.7 256 439.3C277.3 438 298.7 431 320 432.8C341.3 434.7 362.7 445.3 384 451.7C405.3 458 426.7 460 448 457.7C469.3 455.3 490.7 448.7 512 447.3C533.3 446 554.7 450 576 447.5C597.3 445 618.7 436 640 430.8C661.3 425.7 682.7 424.3 704 424.7C725.3 425 746.7 427 768 429.2C789.3 431.3 810.7 433.7 832 435.2C853.3 436.7 874.7 437.3 896 435.2C917.3 433 938.7 428 949.3 425.5L960 423L960 541L949.3 541C938.7 541 917.3 541 896 541C874.7 541 853.3 541 832 541C810.7 541 789.3 541 768 541C746.7 541 725.3 541 704 541C682.7 541 661.3 541 640 541C618.7 541 597.3 541 576 541C554.7 541 533.3 541 512 541C490.7 541 469.3 541 448 541C426.7 541 405.3 541 384 541C362.7 541 341.3 541 320 541C298.7 541 277.3 541 256 541C234.7 541 213.3 541 192 541C170.7 541 149.3 541 128 541C106.7 541 85.3 541 64 541C42.7 541 21.3 541 10.7 541L0 541Z" fill="#fd4f6f"></path><path d="M0 482L10.7 482.5C21.3 483 42.7 484 64 481.2C85.3 478.3 106.7 471.7 128 465.2C149.3 458.7 170.7 452.3 192 455.8C213.3 459.3 234.7 472.7 256 476.2C277.3 479.7 298.7 473.3 320 471.5C341.3 469.7 362.7 472.3 384 470.7C405.3 469 426.7 463 448 461.3C469.3 459.7 490.7 462.3 512 465.8C533.3 469.3 554.7 473.7 576 471.8C597.3 470 618.7 462 640 458.2C661.3 454.3 682.7 454.7 704 458.2C725.3 461.7 746.7 468.3 768 471C789.3 473.7 810.7 472.3 832 471.3C853.3 470.3 874.7 469.7 896 471.2C917.3 472.7 938.7 476.3 949.3 478.2L960 480L960 541L949.3 541C938.7 541 917.3 541 896 541C874.7 541 853.3 541 832 541C810.7 541 789.3 541 768 541C746.7 541 725.3 541 704 541C682.7 541 661.3 541 640 541C618.7 541 597.3 541 576 541C554.7 541 533.3 541 512 541C490.7 541 469.3 541 448 541C426.7 541 405.3 541 384 541C362.7 541 341.3 541 320 541C298.7 541 277.3 541 256 541C234.7 541 213.3 541 192 541C170.7 541 149.3 541 128 541C106.7 541 85.3 541 64 541C42.7 541 21.3 541 10.7 541L0 541Z" fill="#f9727c"></path><path d="M0 478L10.7 482C21.3 486 42.7 494 64 496C85.3 498 106.7 494 128 490.2C149.3 486.3 170.7 482.7 192 480.8C213.3 479 234.7 479 256 479.3C277.3 479.7 298.7 480.3 320 483.7C341.3 487 362.7 493 384 497.2C405.3 501.3 426.7 503.7 448 504.7C469.3 505.7 490.7 505.3 512 501C533.3 496.7 554.7 488.3 576 488.2C597.3 488 618.7 496 640 496.5C661.3 497 682.7 490 704 484.8C725.3 479.7 746.7 476.3 768 477.5C789.3 478.7 810.7 484.3 832 488.3C853.3 492.3 874.7 494.7 896 491.7C917.3 488.7 938.7 480.3 949.3 476.2L960 472L960 541L949.3 541C938.7 541 917.3 541 896 541C874.7 541 853.3 541 832 541C810.7 541 789.3 541 768 541C746.7 541 725.3 541 704 541C682.7 541 661.3 541 640 541C618.7 541 597.3 541 576 541C554.7 541 533.3 541 512 541C490.7 541 469.3 541 448 541C426.7 541 405.3 541 384 541C362.7 541 341.3 541 320 541C298.7 541 277.3 541 256 541C234.7 541 213.3 541 192 541C170.7 541 149.3 541 128 541C106.7 541 85.3 541 64 541C42.7 541 21.3 541 10.7 541L0 541Z" fill="#f38f8d"></path><path d="M0 521L10.7 518.8C21.3 516.7 42.7 512.3 64 510.8C85.3 509.3 106.7 510.7 128 509.5C149.3 508.3 170.7 504.7 192 504.5C213.3 504.3 234.7 507.7 256 510.7C277.3 513.7 298.7 516.3 320 518.7C341.3 521 362.7 523 384 524C405.3 525 426.7 525 448 524.3C469.3 523.7 490.7 522.3 512 519.7C533.3 517 554.7 513 576 510.5C597.3 508 618.7 507 640 509.8C661.3 512.7 682.7 519.3 704 518.7C725.3 518 746.7 510 768 508.7C789.3 507.3 810.7 512.7 832 512.2C853.3 511.7 874.7 505.3 896 506.7C917.3 508 938.7 517 949.3 521.5L960 526L960 541L949.3 541C938.7 541 917.3 541 896 541C874.7 541 853.3 541 832 541C810.7 541 789.3 541 768 541C746.7 541 725.3 541 704 541C682.7 541 661.3 541 640 541C618.7 541 597.3 541 576 541C554.7 541 533.3 541 512 541C490.7 541 469.3 541 448 541C426.7 541 405.3 541 384 541C362.7 541 341.3 541 320 541C298.7 541 277.3 541 256 541C234.7 541 213.3 541 192 541C170.7 541 149.3 541 128 541C106.7 541 85.3 541 64 541C42.7 541 21.3 541 10.7 541L0 541Z" fill="#eba8a2"></path></svg>