<svg id="visual" viewBox="0 0 960 540" width="960" height="540" xmlns="http://www.w3.org/2000/svg" xmlns:xlink="http://www.w3.org/1999/xlink" version="1.1"><rect x="0" y="0" width="960" height="540" fill="#eba8a2"></rect><path d="M0 136L10.7 129.5C21.3 123 42.7 110 64 104C85.3 98 106.7 99 128 102.7C149.3 106.3 170.7 112.7 192 117.8C213.3 123 234.7 127 256 126C277.3 125 298.7 119 320 117.2C341.3 115.3 362.7 117.7 384 119.3C405.3 121 426.7 122 448 122C469.3 122 490.7 121 512 119.2C533.3 117.3 554.7 114.7 576 118.3C597.3 122 618.7 132 640 135.3C661.3 138.7 682.7 135.3 704 129.7C725.3 124 746.7 116 768 115.8C789.3 115.7 810.7 123.3 832 127.5C853.3 131.7 874.7 132.3 896 126.3C917.3 120.3 938.7 107.7 949.3 101.3L960 95L960 0L949.3 0C938.7 0 917.3 0 896 0C874.7 0 853.3 0 832 0C810.7 0 789.3 0 768 0C746.7 0 725.3 0 704 0C682.7 0 661.3 0 640 0C618.7 0 597.3 0 576 0C554.7 0 533.3 0 512 0C490.7 0 469.3 0 448 0C426.7 0 405.3 0 384 0C362.7 0 341.3 0 320 0C298.7 0 277.3 0 256 0C234.7 0 213.3 0 192 0C170.7 0 149.3 0 128 0C106.7 0 85.3 0 64 0C42.7 0 21.3 0 10.7 0L0 0Z" fill="#eba8a2"></path><path d="M0 93L10.7 97C21.3 101 42.7 109 64 113.2C85.3 117.3 106.7 117.7 128 115.8C149.3 114 170.7 110 192 105.8C213.3 101.7 234.7 97.3 256 98.7C277.3 100 298.7 107 320 105.2C341.3 103.3 362.7 92.7 384 86.3C405.3 80 426.7 78 448 80.3C469.3 82.7 490.7 89.3 512 90.7C533.3 92 554.7 88 576 90.5C597.3 93 618.7 102 640 107.2C661.3 112.3 682.7 113.7 704 113.3C725.3 113 746.7 111 768 108.8C789.3 106.7 810.7 104.3 832 102.8C853.3 101.3 874.7 100.7 896 102.8C917.3 105 938.7 110 949.3 112.5L960 115L960 0L949.3 0C938.7 0 917.3 0 896 0C874.7 0 853.3 0 832 0C810.7 0 789.3 0 768 0C746.7 0 725.3 0 704 0C682.7 0 661.3 0 640 0C618.7 0 597.3 0 576 0C554.7 0 533.3 0 512 0C490.7 0 469.3 0 448 0C426.7 0 405.3 0 384 0C362.7 0 341.3 0 320 0C298.7 0 277.3 0 256 0C234.7 0 213.3 0 192 0C170.7 0 149.3 0 128 0C106.7 0 85.3 0 64 0C42.7 0 21.3 0 10.7 0L0 0Z" fill="#f1bdb8"></path><path d="M0 56L10.7 55.5C21.3 55 42.7 54 64 56.8C85.3 59.7 106.7 66.3 128 72.8C149.3 79.3 170.7 85.7 192 82.2C213.3 78.7 234.7 65.3 256 61.8C277.3 58.3 298.7 64.7 320 66.5C341.3 68.3 362.7 65.7 384 67.3C405.3 69 426.7 75 448 76.7C469.3 78.3 490.7 75.7 512 72.2C533.3 68.7 554.7 64.3 576 66.2C597.3 68 618.7 76 640 79.8C661.3 83.7 682.7 83.3 704 79.8C725.3 76.3 746.7 69.7 768 67C789.3 64.3 810.7 65.7 832 66.7C853.3 67.7 874.7 68.3 896 66.8C917.3 65.3 938.7 61.7 949.3 59.8L960 58L960 0L949.3 0C938.7 0 917.3 0 896 0C874.7 0 853.3 0 832 0C810.7 0 789.3 0 768 0C746.7 0 725.3 0 704 0C682.7 0 661.3 0 640 0C618.7 0 597.3 0 576 0C554.7 0 533.3 0 512 0C490.7 0 469.3 0 448 0C426.7 0 405.3 0 384 0C362.7 0 341.3 0 320 0C298.7 0 277.3 0 256 0C234.7 0 213.3 0 192 0C170.7 0 149.3 0 128 0C106.7 0 85.3 0 64 0C42.7 0 21.3 0 10.7 0L0 0Z" fill="#f6d2ce"></path><path d="M0 60L10.7 56C21.3 52 42.7 44 64 42C85.3 40 106.7 44 128 47.8C149.3 51.7 170.7 55.3 192 57.2C213.3 59 234.7 59 256 58.7C277.3 58.3 298.7 57.7 320 54.3C341.3 51 362.7 45 384 40.8C405.3 36.7 426.7 34.3 448 33.3C469.3 32.3 490.7 32.7 512 37C533.3 41.3 554.7 49.7 576 49.8C597.3 50 618.7 42 640 41.5C661.3 41 682.7 48 704 53.2C725.3 58.3 746.7 61.7 768 60.5C789.3 59.3 810.7 53.7 832 49.7C853.3 45.7 874.7 43.3 896 46.3C917.3 49.3 938.7 57.7 949.3 61.8L960 66L960 0L949.3 0C938.7 0 917.3 0 896 0C874.7 0 853.3 0 832 0C810.7 0 789.3 0 768 0C746.7 0 725.3 0 704 0C682.7 0 661.3 0 640 0C618.7 0 597.3 0 576 0C554.7 0 533.3 0 512 0C490.7 0 469.3 0 448 0C426.7 0 405.3 0 384 0C362.7 0 341.3 0 320 0C298.7 0 277.3 0 256 0C234.7 0 213.3 0 192 0C170.7 0 149.3 0 128 0C106.7 0 85.3 0 64 0C42.7 0 21.3 0 10.7 0L0 0Z" fill="#fae7e5"></path><path d="M0 17L10.7 19.2C21.3 21.3 42.7 25.7 64 27.2C85.3 28.7 106.7 27.3 128 28.5C149.3 29.7 170.7 33.3 192 33.5C213.3 33.7 234.7 30.3 256 27.3C277.3 24.3 298.7 21.7 320 19.3C341.3 17 362.7 15 384 14C405.3 13 426.7 13 448 13.7C469.3 14.3 490.7 15.7 512 18.3C533.3 21 554.7 25 576 27.5C597.3 30 618.7 31 640 28.2C661.3 25.3 682.7 18.7 704 19.3C725.3 20 746.7 28 768 29.3C789.3 30.7 810.7 25.3 832 25.8C853.3 26.3 874.7 32.7 896 31.3C917.3 30 938.7 21 949.3 16.5L960 12L960 0L949.3 0C938.7 0 917.3 0 896 0C874.7 0 853.3 0 832 0C810.7 0 789.3 0 768 0C746.7 0 725.3 0 704 0C682.7 0 661.3 0 640 0C618.7 0 597.3 0 576 0C554.7 0 533.3 0 512 0C490.7 0 469.3 0 448 0C426.7 0 405.3 0 384 0C362.7 0 341.3 0 320 0C298.7 0 277.3 0 256 0C234.7 0 213.3 0 192 0C170.7 0 149.3 0 128 0C106.7 0 85.3 0 64 0C42.7 0 21.3 0 10.7 0L0 0Z" fill="#fcfcfc"></path></svg>