<svg id="visual" viewBox="0 0 960 540" width="960" height="540" xmlns="http://www.w3.org/2000/svg" xmlns:xlink="http://www.w3.org/1999/xlink" version="1.1"><path d="M0 44L13.3 45.8C26.7 47.7 53.3 51.3 80 51.3C106.7 51.3 133.3 47.7 160 47.7C186.7 47.7 213.3 51.3 240 55C266.7 58.7 293.3 62.3 320 62.3C346.7 62.3 373.3 58.7 400 59.5C426.7 60.3 453.3 65.7 480 67.5C506.7 69.3 533.3 67.7 560 64.2C586.7 60.7 613.3 55.3 640 58.8C666.7 62.3 693.3 74.7 720 73.7C746.7 72.7 773.3 58.3 800 51.2C826.7 44 853.3 44 880 50.3C906.7 56.7 933.3 69.3 946.7 75.7L960 82L960 0L946.7 0C933.3 0 906.7 0 880 0C853.3 0 826.7 0 800 0C773.3 0 746.7 0 720 0C693.3 0 666.7 0 640 0C613.3 0 586.7 0 560 0C533.3 0 506.7 0 480 0C453.3 0 426.7 0 400 0C373.3 0 346.7 0 320 0C293.3 0 266.7 0 240 0C213.3 0 186.7 0 160 0C133.3 0 106.7 0 80 0C53.3 0 26.7 0 13.3 0L0 0Z" fill="#182648"></path><path d="M0 55L13.3 59.5C26.7 64 53.3 73 80 73C106.7 73 133.3 64 160 62.2C186.7 60.3 213.3 65.7 240 69.3C266.7 73 293.3 75 320 74.2C346.7 73.3 373.3 69.7 400 70.5C426.7 71.3 453.3 76.7 480 80.2C506.7 83.7 533.3 85.3 560 84.5C586.7 83.7 613.3 80.3 640 82.2C666.7 84 693.3 91 720 88.2C746.7 85.3 773.3 72.7 800 67.3C826.7 62 853.3 64 880 71.3C906.7 78.7 933.3 91.3 946.7 97.7L960 104L960 80L946.7 73.7C933.3 67.3 906.7 54.7 880 48.3C853.3 42 826.7 42 800 49.2C773.3 56.3 746.7 70.7 720 71.7C693.3 72.7 666.7 60.3 640 56.8C613.3 53.3 586.7 58.7 560 62.2C533.3 65.7 506.7 67.3 480 65.5C453.3 63.7 426.7 58.3 400 57.5C373.3 56.7 346.7 60.3 320 60.3C293.3 60.3 266.7 56.7 240 53C213.3 49.3 186.7 45.7 160 45.7C133.3 45.7 106.7 49.3 80 49.3C53.3 49.3 26.7 45.7 13.3 43.8L0 42Z" fill="#4a516e"></path><path d="M0 82L13.3 91.8C26.7 101.7 53.3 121.3 80 127.7C106.7 134 133.3 127 160 125.3C186.7 123.7 213.3 127.3 240 130.8C266.7 134.3 293.3 137.7 320 134C346.7 130.3 373.3 119.7 400 118.8C426.7 118 453.3 127 480 131.5C506.7 136 533.3 136 560 132.3C586.7 128.7 613.3 121.3 640 123.2C666.7 125 693.3 136 720 134.3C746.7 132.7 773.3 118.3 800 110.2C826.7 102 853.3 100 880 107.2C906.7 114.3 933.3 130.7 946.7 138.8L960 147L960 102L946.7 95.7C933.3 89.3 906.7 76.7 880 69.3C853.3 62 826.7 60 800 65.3C773.3 70.7 746.7 83.3 720 86.2C693.3 89 666.7 82 640 80.2C613.3 78.3 586.7 81.7 560 82.5C533.3 83.3 506.7 81.7 480 78.2C453.3 74.7 426.7 69.3 400 68.5C373.3 67.7 346.7 71.3 320 72.2C293.3 73 266.7 71 240 67.3C213.3 63.7 186.7 58.3 160 60.2C133.3 62 106.7 71 80 71C53.3 71 26.7 62 13.3 57.5L0 53Z" fill="#7d8097"></path><path d="M0 158L13.3 171.5C26.7 185 53.3 212 80 223.7C106.7 235.3 133.3 231.7 160 228.8C186.7 226 213.3 224 240 230.3C266.7 236.7 293.3 251.3 320 255C346.7 258.7 373.3 251.3 400 243.2C426.7 235 453.3 226 480 226C506.7 226 533.3 235 560 233.2C586.7 231.3 613.3 218.7 640 220.5C666.7 222.3 693.3 238.7 720 237.8C746.7 237 773.3 219 800 217.2C826.7 215.3 853.3 229.7 880 235C906.7 240.3 933.3 236.7 946.7 234.8L960 233L960 145L946.7 136.8C933.3 128.7 906.7 112.3 880 105.2C853.3 98 826.7 100 800 108.2C773.3 116.3 746.7 130.7 720 132.3C693.3 134 666.7 123 640 121.2C613.3 119.3 586.7 126.7 560 130.3C533.3 134 506.7 134 480 129.5C453.3 125 426.7 116 400 116.8C373.3 117.7 346.7 128.3 320 132C293.3 135.7 266.7 132.3 240 128.8C213.3 125.3 186.7 121.7 160 123.3C133.3 125 106.7 132 80 125.7C53.3 119.3 26.7 99.7 13.3 89.8L0 80Z" fill="#b1b3c1"></path><path d="M0 195L13.3 208.5C26.7 222 53.3 249 80 257.2C106.7 265.3 133.3 254.7 160 251.2C186.7 247.7 213.3 251.3 240 261.2C266.7 271 293.3 287 320 288.8C346.7 290.7 373.3 278.3 400 268.5C426.7 258.7 453.3 251.3 480 254C506.7 256.7 533.3 269.3 560 267.5C586.7 265.7 613.3 249.3 640 248.3C666.7 247.3 693.3 261.7 720 261.7C746.7 261.7 773.3 247.3 800 246.5C826.7 245.7 853.3 258.3 880 262C906.7 265.7 933.3 260.3 946.7 257.7L960 255L960 231L946.7 232.8C933.3 234.7 906.7 238.3 880 233C853.3 227.7 826.7 213.3 800 215.2C773.3 217 746.7 235 720 235.8C693.3 236.7 666.7 220.3 640 218.5C613.3 216.7 586.7 229.3 560 231.2C533.3 233 506.7 224 480 224C453.3 224 426.7 233 400 241.2C373.3 249.3 346.7 256.7 320 253C293.3 249.3 266.7 234.7 240 228.3C213.3 222 186.7 224 160 226.8C133.3 229.7 106.7 233.3 80 221.7C53.3 210 26.7 183 13.3 169.5L0 156Z" fill="#e8e9ed"></path><path d="M0 368L13.3 371.7C26.7 375.3 53.3 382.7 80 386.3C106.7 390 133.3 390 160 380C186.7 370 213.3 350 240 347.3C266.7 344.7 293.3 359.3 320 366.7C346.7 374 373.3 374 400 372.2C426.7 370.3 453.3 366.7 480 363.8C506.7 361 533.3 359 560 359C586.7 359 613.3 361 640 365.5C666.7 370 693.3 377 720 377.8C746.7 378.7 773.3 373.3 800 369.8C826.7 366.3 853.3 364.7 880 364.7C906.7 364.7 933.3 366.3 946.7 367.2L960 368L960 253L946.7 255.7C933.3 258.3 906.7 263.7 880 260C853.3 256.3 826.7 243.7 800 244.5C773.3 245.3 746.7 259.7 720 259.7C693.3 259.7 666.7 245.3 640 246.3C613.3 247.3 586.7 263.7 560 265.5C533.3 267.3 506.7 254.7 480 252C453.3 249.3 426.7 256.7 400 266.5C373.3 276.3 346.7 288.7 320 286.8C293.3 285 266.7 269 240 259.2C213.3 249.3 186.7 245.7 160 249.2C133.3 252.7 106.7 263.3 80 255.2C53.3 247 26.7 220 13.3 206.5L0 193Z" fill="#ffffff"></path><path d="M0 390L13.3 394.5C26.7 399 53.3 408 80 413.3C106.7 418.7 133.3 420.3 160 411.3C186.7 402.3 213.3 382.7 240 380C266.7 377.3 293.3 391.7 320 397C346.7 402.3 373.3 398.7 400 396C426.7 393.3 453.3 391.7 480 389.8C506.7 388 533.3 386 560 386C586.7 386 613.3 388 640 390.8C666.7 393.7 693.3 397.3 720 397.3C746.7 397.3 773.3 393.7 800 392.7C826.7 391.7 853.3 393.3 880 393.3C906.7 393.3 933.3 391.7 946.7 390.8L960 390L960 366L946.7 365.2C933.3 364.3 906.7 362.7 880 362.7C853.3 362.7 826.7 364.3 800 367.8C773.3 371.3 746.7 376.7 720 375.8C693.3 375 666.7 368 640 363.5C613.3 359 586.7 357 560 357C533.3 357 506.7 359 480 361.8C453.3 364.7 426.7 368.3 400 370.2C373.3 372 346.7 372 320 364.7C293.3 357.3 266.7 342.7 240 345.3C213.3 348 186.7 368 160 378C133.3 388 106.7 388 80 384.3C53.3 380.7 26.7 373.3 13.3 369.7L0 366Z" fill="#ffffff"></path><path d="M0 406L13.3 411.3C26.7 416.7 53.3 427.3 80 432.7C106.7 438 133.3 438 160 430C186.7 422 213.3 406 240 403.3C266.7 400.7 293.3 411.3 320 414.8C346.7 418.3 373.3 414.7 400 412C426.7 409.3 453.3 407.7 480 408.7C506.7 409.7 533.3 413.3 560 416C586.7 418.7 613.3 420.3 640 421.2C666.7 422 693.3 422 720 422C746.7 422 773.3 422 800 421.2C826.7 420.3 853.3 418.7 880 417.8C906.7 417 933.3 417 946.7 417L960 417L960 388L946.7 388.8C933.3 389.7 906.7 391.3 880 391.3C853.3 391.3 826.7 389.7 800 390.7C773.3 391.7 746.7 395.3 720 395.3C693.3 395.3 666.7 391.7 640 388.8C613.3 386 586.7 384 560 384C533.3 384 506.7 386 480 387.8C453.3 389.7 426.7 391.3 400 394C373.3 396.7 346.7 400.3 320 395C293.3 389.7 266.7 375.3 240 378C213.3 380.7 186.7 400.3 160 409.3C133.3 418.3 106.7 416.7 80 411.3C53.3 406 26.7 397 13.3 392.5L0 388Z" fill="#e8e9ed"></path><path d="M0 433L13.3 438.3C26.7 443.7 53.3 454.3 80 461.5C106.7 468.7 133.3 472.3 160 466.2C186.7 460 213.3 444 240 437.7C266.7 431.3 293.3 434.7 320 435.5C346.7 436.3 373.3 434.7 400 433C426.7 431.3 453.3 429.7 480 430.5C506.7 431.3 533.3 434.7 560 439.2C586.7 443.7 613.3 449.3 640 453C666.7 456.7 693.3 458.3 720 458.3C746.7 458.3 773.3 456.7 800 453C826.7 449.3 853.3 443.7 880 443.7C906.7 443.7 933.3 449.3 946.7 452.2L960 455L960 415L946.7 415C933.3 415 906.7 415 880 415.8C853.3 416.7 826.7 418.3 800 419.2C773.3 420 746.7 420 720 420C693.3 420 666.7 420 640 419.2C613.3 418.3 586.7 416.7 560 414C533.3 411.3 506.7 407.7 480 406.7C453.3 405.7 426.7 407.3 400 410C373.3 412.7 346.7 416.3 320 412.8C293.3 409.3 266.7 398.7 240 401.3C213.3 404 186.7 420 160 428C133.3 436 106.7 436 80 430.7C53.3 425.3 26.7 414.7 13.3 409.3L0 404Z" fill="#b1b3c1"></path><path d="M0 449L13.3 454.5C26.7 460 53.3 471 80 478.2C106.7 485.3 133.3 488.7 160 484.2C186.7 479.7 213.3 467.3 240 462C266.7 456.7 293.3 458.3 320 457.3C346.7 456.3 373.3 452.7 400 450.8C426.7 449 453.3 449 480 451.7C506.7 454.3 533.3 459.7 560 462.3C586.7 465 613.3 465 640 466.8C666.7 468.7 693.3 472.3 720 472.3C746.7 472.3 773.3 468.7 800 466.8C826.7 465 853.3 465 880 465C906.7 465 933.3 465 946.7 465L960 465L960 453L946.7 450.2C933.3 447.3 906.7 441.7 880 441.7C853.3 441.7 826.7 447.3 800 451C773.3 454.7 746.7 456.3 720 456.3C693.3 456.3 666.7 454.7 640 451C613.3 447.3 586.7 441.7 560 437.2C533.3 432.7 506.7 429.3 480 428.5C453.3 427.7 426.7 429.3 400 431C373.3 432.7 346.7 434.3 320 433.5C293.3 432.7 266.7 429.3 240 435.7C213.3 442 186.7 458 160 464.2C133.3 470.3 106.7 466.7 80 459.5C53.3 452.3 26.7 441.7 13.3 436.3L0 431Z" fill="#7d8097"></path><path d="M0 492L13.3 493.8C26.7 495.7 53.3 499.3 80 503.8C106.7 508.3 133.3 513.7 160 512.8C186.7 512 213.3 505 240 500.5C266.7 496 293.3 494 320 494C346.7 494 373.3 496 400 498.8C426.7 501.7 453.3 505.3 480 507.2C506.7 509 533.3 509 560 509.8C586.7 510.7 613.3 512.3 640 514C666.7 515.7 693.3 517.3 720 513.7C746.7 510 773.3 501 800 499.3C826.7 497.7 853.3 503.3 880 506.2C906.7 509 933.3 509 946.7 509L960 509L960 463L946.7 463C933.3 463 906.7 463 880 463C853.3 463 826.7 463 800 464.8C773.3 466.7 746.7 470.3 720 470.3C693.3 470.3 666.7 466.7 640 464.8C613.3 463 586.7 463 560 460.3C533.3 457.7 506.7 452.3 480 449.7C453.3 447 426.7 447 400 448.8C373.3 450.7 346.7 454.3 320 455.3C293.3 456.3 266.7 454.7 240 460C213.3 465.3 186.7 477.7 160 482.2C133.3 486.7 106.7 483.3 80 476.2C53.3 469 26.7 458 13.3 452.5L0 447Z" fill="#4a516e"></path><path d="M0 541L13.3 541C26.7 541 53.3 541 80 541C106.7 541 133.3 541 160 541C186.7 541 213.3 541 240 541C266.7 541 293.3 541 320 541C346.7 541 373.3 541 400 541C426.7 541 453.3 541 480 541C506.7 541 533.3 541 560 541C586.7 541 613.3 541 640 541C666.7 541 693.3 541 720 541C746.7 541 773.3 541 800 541C826.7 541 853.3 541 880 541C906.7 541 933.3 541 946.7 541L960 541L960 507L946.7 507C933.3 507 906.7 507 880 504.2C853.3 501.3 826.7 495.7 800 497.3C773.3 499 746.7 508 720 511.7C693.3 515.3 666.7 513.7 640 512C613.3 510.3 586.7 508.7 560 507.8C533.3 507 506.7 507 480 505.2C453.3 503.3 426.7 499.7 400 496.8C373.3 494 346.7 492 320 492C293.3 492 266.7 494 240 498.5C213.3 503 186.7 510 160 510.8C133.3 511.7 106.7 506.3 80 501.8C53.3 497.3 26.7 493.7 13.3 491.8L0 490Z" fill="#182648"></path></svg>